<svg width="31" height="30" viewBox="0 0 31 30" fill="none" xmlns="http://www.w3.org/2000/svg">
<g clip-path="url(#clip0_11_31)">
<rect width="30" height="30" transform="translate(0.375)" fill="black"/>
<path d="M11.625 0.52065C11.808 0.743048 11.9202 1.01522 11.9469 1.302C11.9736 1.58879 11.9138 1.877 11.775 2.1294C10.691 4.11967 10.1249 6.35058 10.1288 8.6169C10.1288 16.1563 16.275 22.2613 23.85 22.2613C24.8381 22.2613 25.8 22.1582 26.7244 21.9613C27.0077 21.8999 27.3029 21.9234 27.573 22.0288C27.8431 22.1341 28.0762 22.3167 28.2431 22.5538C28.4194 22.8002 28.5092 23.098 28.4987 23.4008C28.4882 23.7037 28.3779 23.9945 28.185 24.2281C26.7144 26.0346 24.8592 27.4901 22.7547 28.4885C20.6502 29.4869 18.3493 30.0031 16.02 29.9994C7.37625 29.9994 0.375 23.0357 0.375 14.4557C0.375 7.99815 4.33875 2.4594 9.9825 0.1119C10.2636 -0.00691526 10.5757 -0.0313016 10.8719 0.0424044C11.1681 0.11611 11.4323 0.283929 11.625 0.52065V0.52065Z" fill="#FFFBFB"/>
</g>
<defs>
<clipPath id="clip0_11_31">
<rect width="30" height="30" fill="white" transform="translate(0.375)"/>
</clipPath>
</defs>
</svg>
